<?xml version="1.0" standalone="no"?>
<!DOCTYPE svg PUBLIC "-//W3C//DTD SVG 20010904//EN"
 "http://www.w3.org/TR/2001/REC-SVG-20010904/DTD/svg10.dtd">
<svg version="1.0" xmlns="http://www.w3.org/2000/svg"
 width="980.000000pt" height="980.000000pt" viewBox="0 0 980.000000 980.000000"
 preserveAspectRatio="xMidYMid meet">
<metadata>
Created by potrace 1.14, written by Peter Selinger 2001-2017
</metadata>
<g transform="translate(0.000000,980.000000) scale(0.100000,-0.100000)"
fill="#000000" stroke="none">
<path d="M2427 9790 c-98 -17 -150 -75 -178 -201 -8 -38 -13 -235 -16 -650
l-4 -596 -197 -6 c-227 -5 -261 -13 -355 -80 -166 -119 -201 -204 -213 -514
l-7 -173 -536 0 c-663 0 -765 -10 -846 -82 -64 -55 -69 -77 -73 -329 -4 -266
-5 -265 95 -374 l68 -75 648 0 647 0 0 -315 0 -315 -157 -1 c-87 0 -385 -4
-662 -8 l-504 -7 -44 -50 c-87 -97 -88 -101 -91 -349 -3 -149 0 -233 8 -260 8
-26 36 -64 83 -112 l70 -73 649 0 648 0 0 -320 0 -320 -648 0 -649 0 -70 -73
c-47 -48 -75 -86 -83 -112 -8 -27 -11 -111 -8 -260 3 -248 4 -252 91 -349 l44
-50 499 -7 c274 -4 572 -8 662 -8 l162 -1 0 -315 0 -315 -643 0 -644 0 -75
-78 c-52 -52 -80 -90 -88 -117 -8 -28 -11 -109 -8 -260 3 -204 5 -223 25 -261
70 -132 146 -144 895 -144 l538 0 0 -152 c1 -246 15 -308 100 -423 107 -145
196 -180 498 -191 l172 -7 0 -536 c0 -557 6 -674 41 -768 26 -69 50 -97 107
-125 44 -22 60 -23 269 -26 260 -4 266 -3 376 98 l67 62 0 649 0 649 315 0
315 0 1 -172 c0 -95 4 -393 8 -662 l6 -489 45 -39 c25 -21 65 -51 90 -66 45
-27 47 -27 261 -30 272 -5 280 -2 376 91 l73 70 0 649 0 648 320 0 320 0 0
-648 0 -649 73 -70 c96 -94 104 -96 376 -91 244 4 248 5 346 91 l50 44 6 484
c4 266 8 564 8 662 l1 177 315 0 315 0 0 -643 0 -644 78 -75 c53 -52 90 -80
117 -88 28 -8 108 -11 255 -8 201 3 218 4 262 26 57 28 81 56 107 125 32 88
40 212 47 768 l7 536 156 6 c275 11 367 41 468 152 100 109 119 176 129 443
l7 172 529 0 c552 0 682 7 774 41 70 26 98 50 126 107 22 44 23 61 26 262 3
147 0 227 -8 255 -8 27 -36 64 -88 117 l-75 78 -644 0 -643 0 0 315 0 315 163
1 c89 0 387 4 661 8 l499 7 44 50 c87 97 88 101 91 345 2 143 -1 231 -8 260
-9 32 -31 63 -83 116 l-70 73 -649 0 -648 0 0 320 0 320 648 0 649 0 70 73
c52 53 74 84 83 116 7 29 10 117 8 260 -3 244 -4 248 -91 345 l-44 50 -499 7
c-274 4 -572 8 -661 8 l-163 1 0 315 0 315 643 0 644 0 75 78 c99 101 101 107
96 381 -3 200 -5 219 -25 257 -70 132 -146 144 -895 144 l-538 0 0 153 c-1
262 -23 341 -135 464 -103 115 -186 142 -447 150 l-188 6 0 536 c0 748 -12
824 -144 894 -38 20 -57 22 -268 25 -266 4 -271 3 -380 -98 l-68 -62 0 -649 0
-649 -315 0 -315 0 -1 173 c0 94 -4 392 -8 661 l-6 488 -50 45 c-99 87 -102
88 -350 91 -149 3 -233 0 -260 -8 -26 -8 -64 -36 -112 -83 l-73 -70 0 -649 0
-648 -320 0 -320 0 0 648 0 649 -73 70 c-53 52 -84 74 -116 83 -29 7 -117 10
-260 8 -244 -3 -248 -4 -346 -91 l-50 -45 -7 -478 c-3 -264 -7 -561 -7 -661
l-1 -183 -315 0 -315 0 0 643 0 644 -78 75 c-54 53 -89 79 -117 87 -46 13
-394 13 -468 1z m2445 -3908 c120 -328 350 -961 513 -1407 162 -445 295 -816
295 -823 0 -30 -58 -35 -470 -40 l-415 -4 -63 208 c-35 115 -64 209 -65 211
-1 1 -175 -2 -387 -7 -212 -5 -420 -9 -462 -10 l-77 0 -62 -189 -63 -188 -134
-7 c-170 -8 -679 -8 -709 0 -13 4 -23 12 -23 20 0 7 102 289 226 626 124 337
354 962 511 1388 156 426 290 781 298 789 22 22 122 28 510 30 l360 1 217
-598z m1898 0 c0 -329 -3 -971 -7 -1425 l-6 -827 -432 0 -433 0 -6 463 c-3
254 -7 895 -10 1425 l-4 962 449 0 449 0 0 -598z"/>
<path d="M4178 5393 c-73 -198 -218 -673 -218 -713 0 -33 36 -42 193 -47 166
-6 297 2 321 20 14 11 8 39 -53 247 -123 423 -179 590 -199 590 -4 0 -24 -44
-44 -97z"/>
</g>
</svg>
